<?xml version="1.0" encoding="UTF-8"?>
<svg xmlns="http://www.w3.org/2000/svg" width="512px" height="512px" viewBox="0 0 512 512" shape-rendering="crispEdges" version="1.1">
<g id="surface1">
<path style=" stroke:none;fill-rule:nonzero;fill:rgb(5%,5%,5%);fill-opacity:1;" d="M 223.621094 1.15625 C 137.929688 12.359375 64.261719 65.585938 25.820312 144.453125 C -22.5 243.792969 -1.882812 361.449219 77.792969 439.027344 C 98.839844 459.28125 118.597656 473.503906 143.726562 485.789062 C 224.476562 525.652344 319.621094 519.621094 395.429688 470.058594 C 490.574219 407.78125 534.167969 287.753906 500.667969 180.011719 C 473.175781 91.875 398.222656 23.78125 307.378906 4.386719 C 288.476562 0.292969 243.378906 -1.429688 223.621094 1.15625 Z M 302.007812 41.449219 C 362.144531 53.519531 420.988281 100.496094 450.839844 159.753906 C 461.578125 180.871094 471.671875 219.445312 471.671875 238.40625 L 471.671875 246.597656 L 457.285156 247.242188 L 442.679688 247.890625 L 442.035156 254.785156 L 441.390625 261.894531 L 472.316406 261.894531 L 470.8125 278.058594 C 468.023438 309.734375 454.921875 344.425781 433.875 376.320312 C 423.136719 392.695312 392.210938 423.296875 374.382812 435.148438 C 345.390625 454.109375 306.304688 467.902344 276.238281 469.195312 L 262.277344 469.839844 L 261.632812 455.1875 C 260.988281 440.75 260.988281 440.75 254.761719 440.75 L 248.316406 440.75 L 248.316406 471.566406 L 235 470.058594 C 185.820312 464.671875 143.941406 445.0625 108.074219 410.796875 C 87.886719 391.402344 74.359375 373.734375 64.261719 353.476562 L 56.746094 338.609375 L 63.835938 332.574219 C 70.492188 326.972656 71.136719 326.757812 76.074219 329.988281 C 80.585938 333.007812 81.660156 333.007812 84.667969 330.207031 C 86.8125 328.480469 89.605469 327.621094 91.109375 328.050781 C 92.613281 328.695312 95.621094 327.621094 97.980469 325.464844 C 100.558594 323.09375 102.277344 322.664062 103.351562 324.171875 C 106.574219 329.773438 111.296875 325.035156 125.6875 300.683594 C 134.277344 286.460938 142.007812 274.824219 142.867188 274.824219 C 143.941406 274.824219 147.164062 278.058594 150.167969 281.9375 C 155.109375 288.617188 157.472656 289.476562 173.578125 292.28125 L 191.40625 295.511719 L 191.40625 319 L 178.304688 319.644531 L 165.203125 320.292969 L 163.914062 329.34375 C 163.269531 334.300781 161.980469 342.488281 161.121094 347.445312 L 159.621094 356.710938 L 216.101562 356.710938 L 216.101562 408.644531 L 229.632812 407.996094 L 242.949219 407.351562 L 243.59375 381.921875 L 244.238281 356.710938 L 259.054688 356.710938 L 259.054688 408.425781 L 284.828125 408.425781 L 284.828125 357.355469 L 300.503906 355.847656 C 320.90625 354.125 340.882812 344.425781 350.761719 331.28125 C 369.015625 307.148438 367.726562 273.53125 347.753906 255.214844 C 341.953125 249.613281 327.996094 241.425781 326.921875 242.933594 C 326.492188 243.363281 325.203125 245.519531 323.914062 247.890625 C 322.195312 251.121094 319.191406 252.199219 311.027344 252.628906 C 300.289062 252.84375 300.289062 252.84375 292.558594 241.207031 C 285.257812 230.21875 284.613281 229.789062 279.027344 231.941406 C 275.59375 233.234375 268.71875 233.882812 263.351562 233.449219 L 253.6875 232.804688 L 245.738281 246.8125 C 235.644531 264.480469 236.933594 261.464844 228.988281 286.675781 C 225.121094 298.527344 221.257812 309.085938 220.398438 309.949219 C 219.539062 311.027344 213.527344 307.578125 207.082031 302.40625 C 197.203125 294.21875 192.691406 292.28125 177.230469 289.046875 C 160.476562 285.382812 158.546875 284.304688 150.597656 275.472656 L 142.007812 265.773438 L 125.042969 293.789062 C 108.71875 321.371094 108.074219 321.800781 102.921875 319.429688 C 98.410156 317.492188 97.121094 317.707031 94.761719 320.9375 C 93.042969 323.09375 90.894531 324.171875 89.605469 323.523438 C 88.316406 322.664062 85.527344 323.308594 83.164062 324.816406 C 79.511719 326.972656 78.222656 326.757812 74.789062 323.742188 C 70.707031 320.078125 70.277344 320.078125 63.40625 327.402344 C 59.539062 331.714844 55.671875 334.300781 54.8125 333.4375 C 51.378906 330.207031 41.929688 292.496094 40.640625 277.625 L 39.351562 261.894531 L 70.277344 261.894531 L 69.632812 254.785156 L 68.988281 247.890625 L 54.167969 247.242188 L 39.351562 246.597656 L 40.640625 231.082031 C 45.792969 171.605469 83.164062 109.546875 134.707031 74.207031 C 163.914062 54.378906 210.304688 37.789062 236.71875 37.789062 L 248.316406 37.789062 L 248.316406 51.792969 C 248.316406 65.800781 248.316406 65.800781 254.546875 65.800781 C 261.632812 65.800781 263.351562 62.136719 263.351562 45.976562 L 263.351562 35.847656 L 274.734375 36.925781 C 280.746094 37.574219 293.203125 39.511719 302.007812 41.449219 Z M 292.34375 266.636719 C 302.652344 272.023438 306.949219 278.273438 307.808594 289.261719 C 308.453125 297.019531 307.59375 301.328125 304.585938 306.285156 C 297.929688 316.84375 288.261719 320.078125 264.640625 320.078125 L 244.023438 320.078125 L 244.023438 261.25 L 265.070312 262.328125 C 277.953125 262.972656 288.261719 264.695312 292.34375 266.636719 Z M 292.34375 266.636719 "/>
<path style=" stroke:none;fill-rule:nonzero;fill:rgb(5%,5%,5%);fill-opacity:1;" d="M 218.25 118.597656 L 218.25 141.222656 L 159.835938 141.222656 L 161.121094 147.039062 C 161.765625 150.488281 162.839844 157.597656 163.699219 163.203125 L 164.988281 173.546875 L 192.476562 173.546875 L 192.476562 287.753906 L 197.632812 289.046875 C 200.425781 289.695312 205.363281 293.140625 208.800781 296.589844 C 212.023438 300.035156 215.457031 302.839844 216.316406 302.839844 C 217.175781 302.839844 221.042969 292.925781 224.90625 280.644531 C 228.773438 268.574219 233.070312 257.585938 234.574219 256.507812 C 235.859375 255.214844 238.652344 250.90625 240.800781 246.8125 C 244.023438 240.5625 244.453125 234.527344 244.238281 207.59375 L 243.808594 175.699219 L 258.410156 175.699219 C 279.242188 175.914062 289.121094 178.71875 296.210938 186.476562 C 300.289062 191.214844 302.007812 195.308594 302.007812 201.34375 C 302.007812 212.765625 295.78125 219.875 282.25 223.96875 C 271.941406 226.988281 270.652344 226.988281 262.707031 222.890625 C 258.195312 220.523438 254.117188 218.796875 253.902344 219.230469 C 248.101562 228.496094 245.953125 232.375 246.8125 233.019531 C 247.242188 233.667969 249.390625 231.511719 251.324219 228.496094 C 254.761719 223.109375 254.976562 223.109375 261.632812 226.554688 C 267.214844 229.574219 269.578125 229.574219 277.953125 227.203125 C 286.761719 224.832031 288.050781 224.832031 289.980469 228.28125 C 291.269531 230.433594 294.921875 235.820312 297.929688 240.132812 C 303.082031 247.242188 304.371094 248.105469 311.242188 247.242188 C 317.042969 246.597656 319.40625 245.085938 321.335938 240.5625 C 322.625 237.546875 325.417969 232.589844 327.566406 229.789062 C 331.429688 224.617188 331.859375 224.617188 337.015625 227.847656 L 342.167969 231.511719 L 346.894531 212.546875 C 349.257812 202.207031 351.40625 190.570312 351.40625 186.90625 C 351.40625 165.355469 329.5 145.964844 300.503906 142.085938 L 289.121094 140.574219 L 289.121094 95.96875 L 261.203125 95.96875 L 261.203125 141.4375 L 253.257812 140.792969 L 245.097656 140.144531 L 244.453125 117.949219 L 243.808594 95.96875 L 218.25 95.96875 Z M 218.25 118.597656 "/>
<path style=" stroke:none;fill-rule:nonzero;fill:rgb(5%,5%,5%);fill-opacity:1;" d="M 387.054688 126.570312 C 384.90625 136.480469 381.257812 153.503906 378.894531 164.28125 L 374.382812 184.320312 L 366.222656 184.320312 C 359.351562 184.320312 357.847656 185.183594 356.773438 189.0625 C 353.550781 204.144531 346.679688 233.234375 345.820312 236.46875 C 345.175781 238.621094 345.605469 240.347656 346.464844 240.347656 C 347.539062 240.347656 351.191406 228.710938 354.625 214.273438 L 360.855469 188.199219 L 369.015625 189.277344 C 378.464844 190.570312 377.175781 193.800781 387.054688 145.964844 C 391.136719 127.644531 394.144531 117.519531 395.859375 117.519531 C 397.363281 117.519531 398.652344 115.578125 398.652344 113.207031 C 398.652344 110.40625 397.148438 108.898438 394.789062 108.898438 C 391.566406 108.898438 390.0625 112.347656 387.054688 126.570312 Z M 387.054688 126.570312 "/>
<path style=" stroke:none;fill-rule:nonzero;fill:rgb(5%,5%,5%);fill-opacity:1;" d="M 329.929688 236.035156 C 328.640625 238.40625 328.210938 240.347656 328.640625 240.347656 C 329.285156 240.347656 330.789062 238.40625 332.074219 236.035156 C 333.363281 233.667969 333.792969 231.726562 333.363281 231.726562 C 332.71875 231.726562 331.214844 233.667969 329.929688 236.035156 Z M 329.929688 236.035156 "/>
</g>
</svg>
